<svg width="82" height="69" fill="none" xmlns="http://www.w3.org/2000/svg"><path d="M29 2.265v19.19a.536.536 0 0 1-.162.386.553.553 0 0 1-.392.159H.56a.563.563 0 0 1-.396-.157.543.543 0 0 1-.164-.387V.544A.535.535 0 0 1 .164.157.554.554 0 0 1 .56 0h10.334a.562.562 0 0 1 .395.157.542.542 0 0 1 .164.388v.63a.536.536 0 0 0 .162.386.554.554 0 0 0 .393.16h16.438a.561.561 0 0 1 .392.158.543.543 0 0 1 .162.386Zm53 47v19.19a.536.536 0 0 1-.162.386.553.553 0 0 1-.392.159H53.56a.563.563 0 0 1-.396-.157.544.544 0 0 1-.164-.388v-20.91a.535.535 0 0 1 .164-.388.555.555 0 0 1 .396-.157h10.334a.563.563 0 0 1 .395.157.542.542 0 0 1 .164.388v.63a.535.535 0 0 0 .162.386.557.557 0 0 0 .392.16h16.439a.56.56 0 0 1 .512.335.536.536 0 0 1 .042.209Z" fill="#FFC368"/><path d="m30.068 30.9 1.76 2.62 1.75-2.62h1.5l-2.46 3.6 2.38 3.5h-1.5l-1.67-2.52-1.68 2.52h-1.51l2.38-3.5-2.46-3.6h1.51Zm5.725 7.1v-7.1h1.38v5.89h3.62V38h-5Zm10.07-5.24a1.645 1.645 0 0 0-.26-.19 2.55 2.55 0 0 0-.45-.23 4.084 4.084 0 0 0-.57-.19 2.249 2.249 0 0 0-.63-.09c-.374 0-.657.07-.85.21a.695.695 0 0 0-.28.59c0 .193.06.347.18.46.12.113.3.21.54.29.24.08.54.167.9.26.466.113.87.253 1.21.42.346.16.61.373.79.64.186.26.28.607.28 1.04 0 .38-.07.707-.21.98-.14.267-.334.483-.58.65-.247.167-.527.29-.84.37a4.38 4.38 0 0 1-1 .11 5.22 5.22 0 0 1-1.06-.11 5.822 5.822 0 0 1-1.02-.31 4.884 4.884 0 0 1-.9-.5l.61-1.19c.06.06.166.14.32.24.153.093.34.19.56.29.22.093.46.173.72.24.26.067.523.1.79.1.373 0 .656-.063.85-.19a.609.609 0 0 0 .29-.54.6.6 0 0 0-.23-.5 2.046 2.046 0 0 0-.64-.31 20.45 20.45 0 0 0-.97-.3 6.216 6.216 0 0 1-1.12-.42c-.3-.16-.524-.36-.67-.6-.147-.24-.22-.54-.22-.9 0-.487.113-.893.34-1.22.233-.333.546-.583.94-.75.393-.173.83-.26 1.31-.26.333 0 .646.037.94.11.3.073.58.17.84.29.26.12.493.25.7.39l-.61 1.12Zm2.564-1.86 1.76 2.62 1.75-2.62h1.5l-2.46 3.6 2.38 3.5h-1.5l-1.67-2.52-1.68 2.52h-1.51l2.38-3.5-2.46-3.6h1.51Z" fill="#FF7015"/><path d="M43 5a28 28 0 0 1 28 28" stroke="#FF7015" stroke-width="2" stroke-miterlimit="10" stroke-dasharray="4 3"/><path d="m74 33-3 8-3-8h6Z" fill="#FF7015"/><path d="M45 64a28 28 0 0 1-28-28" stroke="#FF7015" stroke-width="2" stroke-miterlimit="10" stroke-dasharray="4 3"/><path d="m14 36 3-8 3 8h-6Z" fill="#FF7015"/></svg>