<svg width="62" height="73" fill="none" xmlns="http://www.w3.org/2000/svg"><path stroke="#ECEDF2" stroke-width="3" d="M1.5 1.5h59v70h-59z"/><path fill="#FF7015" d="M14 12h6v6h-6z"/><path fill="#FFC368" d="M26 12h22v2H26zm0 4h22v2H26z"/><path fill="#FF7015" d="M14 36h6v6h-6z"/><path fill="#FFC368" d="M26 36h22v2H26zm0 4h22v2H26z"/><path fill="#FF7015" d="M14 48h6v6h-6z"/><path fill="#FFC368" d="M26 48h22v2H26zm0 4h22v2H26z"/><path fill="#FF7015" d="M14 24h6v6h-6z"/><path fill="#FFC368" d="M26 24h22v2H26zm0 4h22v2H26z"/></svg>