<svg width="64" height="64" fill="none" xmlns="http://www.w3.org/2000/svg"><rect width="64" height="64" rx="8" fill="#FFC368"/><path d="M38.446 48.024A10.159 10.159 0 0 0 40.389 54H12a20.004 20.004 0 0 1 3.168-10.695 20.198 20.198 0 0 1 8.418-7.374c3.45-1.62 7.29-2.24 11.08-1.786A20.315 20.315 0 0 1 45 38.495a10.266 10.266 0 0 0-4.763 3.756 10.158 10.158 0 0 0-1.791 5.773ZM33 31c5.523 0 10-4.477 10-10s-4.477-10-10-10-10 4.477-10 10 4.477 10 10 10Zm23 15.191h-5.191V41H48.19v5.191H43v2.618h5.191V54h2.618v-5.191H56V46.19Z" fill="#3E4249"/></svg>