<svg width="258" height="96" fill="none" xmlns="http://www.w3.org/2000/svg"><path d="M32.83 39.738c2.145 1.91 3.217 4.775 3.217 8.599v14.727h-6.998v-3.218c-1.404 2.397-4.024 3.596-7.858 3.596a12.216 12.216 0 0 1-5.147-1.006 7.689 7.689 0 0 1-3.33-2.783 7.239 7.239 0 0 1-1.15-4.021 6.724 6.724 0 0 1 2.702-5.63c1.812-1.379 4.6-2.065 8.365-2.06h5.936a4.779 4.779 0 0 0-1.48-3.764 6.555 6.555 0 0 0-4.456-1.319 12.961 12.961 0 0 0-4.022.651c-1.217.38-2.358.97-3.37 1.746l-2.686-5.22a16.321 16.321 0 0 1 5.05-2.3 22.874 22.874 0 0 1 6.066-.805c3.994-.005 7.048.93 9.16 2.807Zm-6.387 17.808a4.826 4.826 0 0 0 2.108-2.614v-2.63h-5.124c-3.067 0-4.6 1.005-4.6 3.016a2.696 2.696 0 0 0 1.125 2.276c.916.595 2 .877 3.09.805a6.436 6.436 0 0 0 3.401-.853ZM68.38 27.537v35.527h-7.142v-2.968c-1.85 2.236-4.53 3.354-8.043 3.354a13.376 13.376 0 0 1-6.587-1.609 11.638 11.638 0 0 1-4.625-4.649 15.388 15.388 0 0 1 0-13.987 11.744 11.744 0 0 1 4.625-4.65 13.375 13.375 0 0 1 6.587-1.608c3.287 0 5.858 1.038 7.714 3.113V27.537h7.472Zm-9.2 27.853a8.14 8.14 0 0 0 0-10.392 6.692 6.692 0 0 0-9.435 0 8.164 8.164 0 0 0 0 10.392 6.29 6.29 0 0 0 4.745 1.939 6.235 6.235 0 0 0 4.69-1.939Zm55.522 7.674-6.435-9.339h-7.134v9.339h-7.762V29.547h14.518a18.614 18.614 0 0 1 7.73 1.48 11.537 11.537 0 0 1 7.043 10.659 11.539 11.539 0 0 1-7.108 10.616l7.489 10.762h-8.341Zm-1.963-25.699c-1.214-1.013-2.984-1.512-5.316-1.512h-6.322V47.54h6.322c2.332 0 4.104-.51 5.316-1.528a6.038 6.038 0 0 0 1.345-1.978 6.036 6.036 0 0 0 0-4.69 6.038 6.038 0 0 0-1.345-1.979Zm40.385 14.937h-19.496a6.078 6.078 0 0 0 2.493 3.78 8.18 8.18 0 0 0 4.882 1.392 10.01 10.01 0 0 0 3.571-.596 8.59 8.59 0 0 0 2.896-1.898l3.981 4.311c-2.429 2.783-5.976 4.175-10.641 4.175a16.831 16.831 0 0 1-7.713-1.705 12.456 12.456 0 0 1-5.172-4.714 13.009 13.009 0 0 1-1.818-6.853 13.16 13.16 0 0 1 1.794-6.828 12.573 12.573 0 0 1 4.938-4.746 14.57 14.57 0 0 1 7.014-1.697c2.382-.04 4.737.512 6.853 1.609a11.906 11.906 0 0 1 4.826 4.673 13.93 13.93 0 0 1 1.753 7.07c-.016.113-.064.78-.161 2.027Zm-17.486-8.293a6.148 6.148 0 0 0-2.107 3.933h12.692a6.201 6.201 0 0 0-2.107-3.909 6.29 6.29 0 0 0-4.215-1.456 6.435 6.435 0 0 0-4.263 1.432Zm39.235 17.824c-.812.58-1.73.996-2.702 1.223a13.65 13.65 0 0 1-3.379.41c-3.064 0-5.437-.805-7.118-2.349s-2.517-3.869-2.517-6.9V43.63h-3.974v-5.75h3.974v-6.274h7.48v6.273h6.434v5.751h-6.434v10.456a3.5 3.5 0 0 0 .804 2.518 3.122 3.122 0 0 0 2.373.885 4.826 4.826 0 0 0 3.016-.958l2.043 5.301Zm30.186-24.508v25.739h-7.094v-3.065a9.827 9.827 0 0 1-3.547 2.558 11.074 11.074 0 0 1-4.456.893c-3.383 0-6.064-.976-8.043-2.928-1.979-1.952-2.971-4.842-2.976-8.67V37.324h7.48v13.457c0 4.155 1.74 6.233 5.22 6.233a5.636 5.636 0 0 0 4.312-1.753c1.072-1.164 1.608-2.896 1.608-5.196v-12.74h7.496Zm16.738.555c1.667-.664 3.45-.99 5.245-.957v6.901a25.692 25.692 0 0 0-1.673-.096 6.826 6.826 0 0 0-5.027 1.793c-1.218 1.196-1.826 2.992-1.826 5.39v12.153h-7.472V37.325h7.134v3.402a8.42 8.42 0 0 1 3.619-2.847Zm33.074 1.915c1.963 1.92 2.944 4.761 2.944 8.525v14.744h-7.472V49.47c0-2.043-.448-3.566-1.343-4.569a4.922 4.922 0 0 0-3.877-1.512 5.98 5.98 0 0 0-4.504 1.745c-1.121 1.164-1.679 2.898-1.673 5.204v12.725h-7.481V37.325h7.143v3.017a9.973 9.973 0 0 1 3.684-2.518c1.537-.6 3.175-.9 4.825-.885a10.612 10.612 0 0 1 7.754 2.856ZM93.202 69.048h2.67a3.78 3.78 0 0 1 1.738.378c.49.236.902.61 1.182 1.078.285.487.43 1.044.418 1.608a3.1 3.1 0 0 1-.418 1.609 2.823 2.823 0 0 1-1.182 1.07 3.78 3.78 0 0 1-1.737.386h-2.67v-6.13Zm2.622 5.147c.41.01.815-.078 1.183-.257a1.81 1.81 0 0 0 .804-.732 2.14 2.14 0 0 0 .281-1.102 2.188 2.188 0 0 0-.281-1.11 1.858 1.858 0 0 0-.804-.732 2.662 2.662 0 0 0-1.183-.257h-1.488v4.19h1.488Zm9.765-1.19v2.124h-1.126v-2.14l-2.413-3.973h1.214l1.786 2.976 1.81-2.976h1.118l-2.389 3.989Zm11.276-3.957v6.08h-.933l-3.37-4.142v4.142h-1.126v-6.112h.933l3.37 4.134v-4.134l1.126.032Zm8.406 4.697h-3.057l-.603 1.416h-1.174l2.75-6.113h1.118l2.759 6.113h-1.182l-.611-1.416Zm-.378-.893-1.127-2.67-1.15 2.67h2.277Zm11.357 2.277v-4.022l-2.027 3.354h-.507l-2.011-3.306v4.022h-1.086v-6.113h.933l2.413 4.022 2.413-4.022h.933v6.065h-1.061Zm5.525-6.081h1.134v6.08h-1.134v-6.08Zm6.732 5.791a3.002 3.002 0 0 1-1.166-1.118 3.154 3.154 0 0 1-.426-1.609 3.04 3.04 0 0 1 1.601-2.735 3.496 3.496 0 0 1 1.672-.402 3.62 3.62 0 0 1 1.376.258c.407.182.765.458 1.046.804l-.732.692a2.137 2.137 0 0 0-1.609-.716 2.266 2.266 0 0 0-1.126.273 1.927 1.927 0 0 0-.804.805 2.19 2.19 0 0 0-.282 1.11c-.004.388.093.77.282 1.11.183.34.463.62.804.804.347.183.734.278 1.126.273a2.136 2.136 0 0 0 1.609-.723l.732.7a2.79 2.79 0 0 1-1.054.755 3.51 3.51 0 0 1-1.376.266 3.416 3.416 0 0 1-1.673-.547Zm22.401.29-1.255-1.794h-1.609v1.794h-1.134v-6.113h2.518c.474-.01.945.078 1.383.257a2.013 2.013 0 0 1 1.223 1.914 2.09 2.09 0 0 1-.338 1.19 2 2 0 0 1-.965.74l1.408 2.011h-1.231Zm-.41-4.827a1.763 1.763 0 0 0-1.134-.313h-1.36v2.413h1.327a1.72 1.72 0 0 0 1.134-.322 1.26 1.26 0 0 0 0-1.802l.033.024Zm10.166 3.902v.925h-4.617v-6.113h4.464v.949h-3.321v1.608h2.943v.933h-2.943v1.681l3.474.017Zm5.301-4.199h-2.019v-.957h5.188v.957h-2.027v5.124h-1.142v-5.124Zm10.472 3.74h-3.056l-.604 1.383h-1.166l2.751-6.112h1.118l2.759 6.112h-1.191l-.611-1.383Zm-.37-.893-1.158-2.67-1.166 2.67h2.324Zm9.74 2.277-1.246-1.794h-1.609v1.794h-1.166v-6.113h2.517c.474-.01.945.078 1.384.257a2 2 0 0 1 .901.756 2.29 2.29 0 0 1 0 2.349 1.952 1.952 0 0 1-.957.74l1.399 2.01h-1.223Zm-.41-4.827a1.737 1.737 0 0 0-1.126-.313h-1.327v2.413h1.327c.402.03.801-.084 1.126-.322a1.24 1.24 0 0 0 .285-1.39 1.24 1.24 0 0 0-.285-.412v.024Zm9.765 1.73h1.102v2.413c-.33.257-.703.453-1.102.579a4.4 4.4 0 0 1-1.295.201 3.443 3.443 0 0 1-1.681-.41 3.044 3.044 0 0 1-1.183-1.118 3.164 3.164 0 0 1-.426-1.609 3.122 3.122 0 0 1 .426-1.608 3.064 3.064 0 0 1 1.183-1.127 3.595 3.595 0 0 1 1.697-.402c.478-.008.953.077 1.399.25.407.16.769.416 1.054.748l-.716.691a2.308 2.308 0 0 0-1.681-.691 2.414 2.414 0 0 0-1.15.265 2 2 0 0 0-.804.804 2.326 2.326 0 0 0 0 2.22c.193.324.471.588.804.764.35.19.744.287 1.142.282.439.01.872-.1 1.255-.314l-.024-1.938Zm9.949 2.172v.925h-4.584v-6.113h4.464v.949h-3.33v1.608h2.952v.933h-2.952v1.681l3.45.017Zm5.301-4.199h-2.027v-.957h5.188v.957h-2.027v5.124h-1.134v-5.124Zm6.812-.957h1.134v6.08h-1.134v-6.08Zm11.012 0v6.08h-.933l-3.371-4.142v4.142h-1.126v-6.112h.933l3.37 4.134v-4.134l1.127.032Zm8.606 2.984h1.078v2.413c-.33.257-.703.453-1.102.579-.42.131-.856.199-1.295.201a3.443 3.443 0 0 1-1.681-.41 3.101 3.101 0 0 1-1.183-1.118 3.154 3.154 0 0 1-.426-1.609 3.113 3.113 0 0 1 .426-1.609 3.064 3.064 0 0 1 1.183-1.126 3.6 3.6 0 0 1 1.705-.402c.475-.007.948.078 1.391.25.408.161.772.418 1.062.748l-.716.691a2.314 2.314 0 0 0-1.689-.691 2.413 2.413 0 0 0-1.15.265 1.975 1.975 0 0 0-.804.804 2.26 2.26 0 0 0 0 2.22c.192.325.47.59.804.764.35.19.744.287 1.142.282.439.01.872-.1 1.255-.314v-1.938Z" fill="#3E4249"/><path d="M84.672 32.684C73.669-.74 31.199-11.27 6.443 14.032l-1.91-1.957L0 23.681l11.625-4.526-2.044-1.99A41.319 41.319 0 0 1 36.885 5.81c18.312-.57 35.195 11.623 40.132 29.259 5.426 19.239-4.584 39.805-23.25 47.12-13.98 5.534-30.98 2.04-41.276-8.936l-8.89 8.894a49.921 49.921 0 0 0 18.631 11.257 49.984 49.984 0 0 0 21.66 2.263c30.332-3.67 50.117-33.835 40.78-62.983Z" fill="url(#a)"/><defs><linearGradient id="a" x1="72.34" y1="10.497" x2="7.27" y2="84.084" gradientUnits="userSpaceOnUse"><stop stop-color="#FF7015"/><stop offset="1" stop-color="#FFC368"/></linearGradient></defs></svg>