<svg xmlns="http://www.w3.org/2000/svg" xmlns:xlink="http://www.w3.org/1999/xlink">
  <defs>
    <clipPath id="a">
      <path fill="#fff" transform="translate(3 10)" d="M0 0h57v49H0z"/>
    </clipPath>
    <filter id="background" x="0" y="0" width="188" height="188" filterUnits="userSpaceOnUse" color-interpolation-filters="sRGB">
      <feFlood flood-opacity="0" result="BackgroundImageFix"/>
      <feColorMatrix in="SourceAlpha" values="0 0 0 0 0 0 0 0 0 0 0 0 0 0 0 0 0 0 127 0" result="hardAlpha"/>
      <feOffset dy="12"/>
      <feGaussianBlur stdDeviation="16"/>
      <feComposite in2="hardAlpha" operator="out"/>
      <feColorMatrix values="0 0 0 0 1 0 0 0 0 0.439216 0 0 0 0 0.0823529 0 0 0 1 0"/>
      <feBlend in2="BackgroundImageFix" result="effect1_dropShadow_50_558"/>
      <feBlend in="SourceGraphic" in2="effect1_dropShadow_50_558" result="shape"/>
    </filter>
  </defs>
  <symbol id="ic-service-1">
    <g fill="none">
      <rect width="64" height="64" rx="8" fill="#FFC368"/>
      <circle cx="32" cy="32" r="27" fill="#D7D8DF" stroke="#3E4249" stroke-width="2"/>
      <circle cx="32" cy="32" r="21" fill="#FFC368" stroke="#3E4249" stroke-width="2"/>
      <circle cx="32" cy="32" r="14" fill="#D7D8DF" stroke="#3E4249" stroke-width="2"/>
      <circle cx="32" cy="32" r="7" fill="#FFC368" stroke="#3E4249" stroke-width="2"/>
    </g>
  </symbol>
  <symbol id="ic-service-2">
    <g fill="none">
      <rect width="64" height="64" rx="8" fill="#FFC368"/>
      <path
        d="M38.446 48.024A10.159 10.159 0 0 0 40.389 54H12a20.004 20.004 0 0 1 3.168-10.695 20.198 20.198 0 0 1 8.418-7.374c3.45-1.62 7.29-2.24 11.08-1.786A20.315 20.315 0 0 1 45 38.495a10.266 10.266 0 0 0-4.763 3.756 10.158 10.158 0 0 0-1.791 5.773ZM33 31c5.523 0 10-4.477 10-10s-4.477-10-10-10-10 4.477-10 10 4.477 10 10 10Zm23 15.191h-5.191V41H48.19v5.191H43v2.618h5.191V54h2.618v-5.191H56V46.19Z"
        fill="#3E4249"/>
    </g>
  </symbol>
  <symbol id="ic-service-3">
    <g fill="none">
      <rect width="64" height="64" rx="8" fill="#FFC368"/>
      <path fill="#3E4249" d="M36 35h22v22H36z"/>
      <circle cx="47" cy="46" r="9" fill="#D7D8DF"/>
      <path fill="#3E4249" d="M7 7h22v22H7z"/>
      <path d="m18 10 8.66 15H9.34L18 10Z" fill="#D7D8DF"/>
      <path d="M34 16a12.896 12.896 0 0 1 12.896 12.896" stroke="#3E4249" stroke-miterlimit="10"
            stroke-dasharray="4 2"/>
      <path d="m49 28-2 5-2-5h4Z" fill="#3E4249"/>
      <path d="M31 50a12.896 12.896 0 0 1-12.896-12.896" stroke="#3E4249" stroke-miterlimit="10"
            stroke-dasharray="4 2"/>
      <path d="m16 38 2-5 2 5h-4Z" fill="#3E4249"/>
    </g>
  </symbol>
  <symbol id="ic-service-4">
    <g fill="none">
      <rect width="64" height="64" rx="8" fill="#FFC368"/>
      <g clip-path="url(#a)">
        <path
          d="M22.894 22.366a6.008 6.008 0 0 1-1 3.32 5.938 5.938 0 0 1-2.661 2.2 5.885 5.885 0 0 1-3.426.339 5.915 5.915 0 0 1-3.035-1.638 5.99 5.99 0 0 1-1.62-3.061 6.017 6.017 0 0 1 .34-3.453 5.965 5.965 0 0 1 2.188-2.679 5.895 5.895 0 0 1 5.563-.547c.718.3 1.371.74 1.921 1.295a6.007 6.007 0 0 1 1.73 4.224Z"
          fill="#fff"/>
        <path d="M25.784 32.116V16.11h11.432v16.006H25.784Z" fill="#D7D8DF" stroke="#3E4249" stroke-width="2"/>
        <path
          d="m28.564 17.526-.572-1.775-1.337-4.134a2.317 2.317 0 0 0-1.146-1.35 2.288 2.288 0 0 0-1.757-.137l-14.28 4.645a9.336 9.336 0 0 0-3.192 1.8 9.419 9.419 0 0 0-2.264 2.894 9.487 9.487 0 0 0-.555 7.208l.258.799a9.42 9.42 0 0 0 4.656 5.49 9.3 9.3 0 0 0 7.144.568l5.928-1.942a11.042 11.042 0 0 0 3.973-2.323 10.641 10.641 0 0 0 1.844-2.146 11.232 11.232 0 0 0 1.3-9.597ZM16.976 28.34a5.894 5.894 0 0 1-3.296-1.002 5.965 5.965 0 0 1-2.187-2.68 6.017 6.017 0 0 1-.341-3.452 5.99 5.99 0 0 1 1.62-3.061 5.914 5.914 0 0 1 3.035-1.637 5.885 5.885 0 0 1 3.426.338 5.937 5.937 0 0 1 2.662 2.2 6.008 6.008 0 0 1-.734 7.541 5.904 5.904 0 0 1-4.185 1.753Z"
          fill="#3E4249"/>
        <path d="M28 51V34h7v17h-7Z" fill="#D7D8DF" stroke="#3E4249" stroke-width="2"/>
        <path d="M42 51H21v8h21v-8Z" fill="#3E4249"/>
        <path
          d="M46.024 28.34c3.274 0 5.928-2.674 5.928-5.974 0-3.3-2.654-5.974-5.928-5.974-3.273 0-5.927 2.675-5.927 5.974 0 3.3 2.654 5.974 5.927 5.974Z"
          fill="#fff"/>
        <path
          d="M22.894 22.338a6.008 6.008 0 0 1-1 3.32 5.937 5.937 0 0 1-2.661 2.2 5.885 5.885 0 0 1-3.426.339 5.914 5.914 0 0 1-3.035-1.638 5.99 5.99 0 0 1-1.62-3.06 6.017 6.017 0 0 1 .34-3.453 5.965 5.965 0 0 1 2.188-2.68 5.894 5.894 0 0 1 5.563-.547 5.951 5.951 0 0 1 3.203 3.234c.297.725.45 1.501.448 2.285Z"
          fill="#D7D8DF"/>
        <path
          d="m53.528 14.785-14.28-4.646a2.289 2.289 0 0 0-1.754.135c-.544.277-.958.76-1.15 1.343l-1.336 4.153-.572 1.774a11.232 11.232 0 0 0 1.31 9.616 10.64 10.64 0 0 0 1.843 2.146 11.04 11.04 0 0 0 3.973 2.305l5.928 1.941a9.3 9.3 0 0 0 7.145-.566 9.42 9.42 0 0 0 4.655-5.491l.258-.8a9.517 9.517 0 0 0-.56-7.212 9.439 9.439 0 0 0-2.266-2.896 9.357 9.357 0 0 0-3.194-1.802ZM46.024 28.34a5.895 5.895 0 0 1-3.293-1.007 5.964 5.964 0 0 1-2.183-2.68 6.016 6.016 0 0 1-.337-3.452 5.988 5.988 0 0 1 1.622-3.06 5.913 5.913 0 0 1 3.035-1.634 5.885 5.885 0 0 1 3.425.34 5.938 5.938 0 0 1 2.66 2.2 6.008 6.008 0 0 1-.737 7.543 5.888 5.888 0 0 1-4.192 1.75Z"
          fill="#3E4249"/>
        <path
          d="M46.024 28.322c3.274 0 5.928-2.675 5.928-5.974 0-3.3-2.654-5.974-5.928-5.974-3.273 0-5.927 2.674-5.927 5.974 0 3.299 2.654 5.974 5.927 5.974Z"
          fill="#D7D8DF"/>
      </g>
    </g>
  </symbol>
  <symbol id="ic-service-5">
    <g fill="none">
      <rect width="64" height="64" rx="8" fill="#FFC368"/>
      <rect x="6" y="13" width="52" height="30" rx="3" fill="#D7D8DF" stroke="#3E4249" stroke-width="2"/>
      <path stroke="#3E4249" stroke-width="2" stroke-linecap="round" d="M6 47h52"/>
      <rect x="35" y="28" width="17" height="30" rx="3" fill="#D7D8DF" stroke="#3E4249" stroke-width="2"/>
      <rect x="40" y="27" width="7" height="3" rx="1" fill="#3E4249"/>
    </g>
  </symbol>
  <symbol id="ic-service-6">
    <g fill="none">
      <rect width="64" height="64" rx="8" fill="#FFC368"/>
      <circle cx="21" cy="32" r="16" stroke="#3E4249" stroke-width="2"/>
      <circle cx="43" cy="32" r="16" stroke="#3E4249" stroke-width="2"/>
      <path stroke="#3E4249" stroke-width="2" d="m34.707 23.707-8 8m10-4-9 9m9-4-8 8"/>
    </g>
  </symbol>
  <symbol id="ic-steps-1">
    <g fill="none">
      <path d="M30 20 5 31l25 11m34 0 25-11-25-11" stroke="#FFC368" stroke-width="4"/>
      <path d="M59 1 35 61" stroke="#FF7015" stroke-width="3"/>
    </g>
  </symbol>
  <symbol id="ic-steps-2">
    <g fill="none">
      <path
        d="M29 2.265v19.19a.536.536 0 0 1-.162.386.553.553 0 0 1-.392.159H.56a.563.563 0 0 1-.396-.157.543.543 0 0 1-.164-.387V.544A.535.535 0 0 1 .164.157.554.554 0 0 1 .56 0h10.334a.562.562 0 0 1 .395.157.542.542 0 0 1 .164.388v.63a.536.536 0 0 0 .162.386.554.554 0 0 0 .393.16h16.438a.561.561 0 0 1 .392.158.543.543 0 0 1 .162.386Zm53 47v19.19a.536.536 0 0 1-.162.386.553.553 0 0 1-.392.159H53.56a.563.563 0 0 1-.396-.157.544.544 0 0 1-.164-.388v-20.91a.535.535 0 0 1 .164-.388.555.555 0 0 1 .396-.157h10.334a.563.563 0 0 1 .395.157.542.542 0 0 1 .164.388v.63a.535.535 0 0 0 .162.386.557.557 0 0 0 .392.16h16.439a.56.56 0 0 1 .512.335.536.536 0 0 1 .042.209Z"
        fill="#FFC368"/>
      <path
        d="m30.068 30.9 1.76 2.62 1.75-2.62h1.5l-2.46 3.6 2.38 3.5h-1.5l-1.67-2.52-1.68 2.52h-1.51l2.38-3.5-2.46-3.6h1.51Zm5.725 7.1v-7.1h1.38v5.89h3.62V38h-5Zm10.07-5.24a1.645 1.645 0 0 0-.26-.19 2.55 2.55 0 0 0-.45-.23 4.084 4.084 0 0 0-.57-.19 2.249 2.249 0 0 0-.63-.09c-.374 0-.657.07-.85.21a.695.695 0 0 0-.28.59c0 .193.06.347.18.46.12.113.3.21.54.29.24.08.54.167.9.26.466.113.87.253 1.21.42.346.16.61.373.79.64.186.26.28.607.28 1.04 0 .38-.07.707-.21.98-.14.267-.334.483-.58.65-.247.167-.527.29-.84.37a4.38 4.38 0 0 1-1 .11 5.22 5.22 0 0 1-1.06-.11 5.822 5.822 0 0 1-1.02-.31 4.884 4.884 0 0 1-.9-.5l.61-1.19c.06.06.166.14.32.24.153.093.34.19.56.29.22.093.46.173.72.24.26.067.523.1.79.1.373 0 .656-.063.85-.19a.609.609 0 0 0 .29-.54.6.6 0 0 0-.23-.5 2.046 2.046 0 0 0-.64-.31 20.45 20.45 0 0 0-.97-.3 6.216 6.216 0 0 1-1.12-.42c-.3-.16-.524-.36-.67-.6-.147-.24-.22-.54-.22-.9 0-.487.113-.893.34-1.22.233-.333.546-.583.94-.75.393-.173.83-.26 1.31-.26.333 0 .646.037.94.11.3.073.58.17.84.29.26.12.493.25.7.39l-.61 1.12Zm2.564-1.86 1.76 2.62 1.75-2.62h1.5l-2.46 3.6 2.38 3.5h-1.5l-1.67-2.52-1.68 2.52h-1.51l2.38-3.5-2.46-3.6h1.51Z"
        fill="#FF7015"/>
      <path d="M43 5a28 28 0 0 1 28 28" stroke="#FF7015" stroke-width="2" stroke-miterlimit="10"
            stroke-dasharray="4 3"/>
      <path d="m74 33-3 8-3-8h6Z" fill="#FF7015"/>
      <path d="M45 64a28 28 0 0 1-28-28" stroke="#FF7015" stroke-width="2" stroke-miterlimit="10"
            stroke-dasharray="4 3"/>
      <path d="m14 36 3-8 3 8h-6Z" fill="#FF7015"/>
    </g>
  </symbol>
  <symbol id="ic-steps-3">
    <g fill="none">
      <path stroke="#ECEDF2" stroke-width="3" d="M1.5 1.5h59v70h-59z"/>
      <path fill="#FF7015" d="M14 12h6v6h-6z"/>
      <path fill="#FFC368" d="M26 12h22v2H26zm0 4h22v2H26z"/>
      <path fill="#FF7015" d="M14 36h6v6h-6z"/>
      <path fill="#FFC368" d="M26 36h22v2H26zm0 4h22v2H26z"/>
      <path fill="#FF7015" d="M14 48h6v6h-6z"/>
      <path fill="#FFC368" d="M26 48h22v2H26zm0 4h22v2H26z"/>
      <path fill="#FF7015" d="M14 24h6v6h-6z"/>
      <path fill="#FFC368" d="M26 24h22v2H26zm0 4h22v2H26z"/>
    </g>
  </symbol>
  <symbol id="ic-steps-5">
    <g fill="none">
      <g filter="url(#background)">
        <circle cx="94" cy="82" r="62" fill="#F8F8FA"/>
      </g>
      <circle cx="94" cy="82" r="75" fill="#FFC368"/>
      <path d="M110.958 73.306v13.098l-9.025-7.726-.158-.136h.158a84.283 84.283 0 0 0 2.374-14.533l6.651 9.297Z"
            fill="#FFC368" stroke="#3E4249" stroke-width="2"/>
      <path
        d="M104.307 64.013a84.377 84.377 0 0 1-2.373 14.532H86.025a84.348 84.348 0 0 1-2.373-14.532c-.791-11.501 1.527-19.544 4.165-24.809C90.705 33.437 93.979 31 93.979 31s3.275 2.436 6.163 8.205c2.638 5.264 4.956 13.307 4.165 24.808Z"
        fill="#FFC368" stroke="#3E4249" stroke-width="2"/>
      <path d="M77 73.306v13.098l9.025-7.726.158-.136h-.158a84.348 84.348 0 0 1-2.373-14.533L77 73.306Z" fill="#FFC368"
            stroke="#3E4249" stroke-width="2"/>
      <path
        d="M101.933 78.545H86.025v4.463h15.908v-4.463Zm-2.715 4.463H88.74v6.406h10.478v-6.406Zm.924-43.803a10.174 10.174 0 0 1-12.325 0C90.705 33.434 93.979 31 93.979 31s3.275 2.436 6.163 8.205ZM93.98 59.429a4.658 4.658 0 1 0 0-9.316 4.658 4.658 0 0 0 0 9.316Z"
        fill="#FFC368" stroke="#3E4249" stroke-width="2"/>
      <path d="M93.98 93.196v12.13m4.267-12.13v8.83m-8.536-8.83v8.83" stroke="#3E4249" stroke-width="2"/>
    </g>
  </symbol>
</svg>
